<mxfile host="app.diagrams.net" modified="2023-06-03T11:26:29.615Z" agent="Mozilla/5.0 (X11; Linux x86_64) AppleWebKit/537.36 (KHTML, like Gecko) Chrome/113.0.0.0 Safari/537.36" etag="M_fo9x1gqlNY7F9gNa_x" version="21.3.7" type="device">
  <diagram name="PÃ¡gina-1" id="RGXGd4tcm235eDxAC3z0">
    <mxGraphModel dx="1051" dy="779" grid="1" gridSize="10" guides="1" tooltips="1" connect="1" arrows="1" fold="1" page="1" pageScale="1" pageWidth="827" pageHeight="1169" math="0" shadow="0">
      <root>
        <mxCell id="0" />
        <mxCell id="1" parent="0" />
        <mxCell id="ne6fWqcortJCOHYnfYvi-52" style="edgeStyle=orthogonalEdgeStyle;rounded=0;orthogonalLoop=1;jettySize=auto;html=1;entryX=0.5;entryY=0;entryDx=0;entryDy=0;entryPerimeter=0;strokeWidth=2;" parent="1" source="ne6fWqcortJCOHYnfYvi-1" target="ne6fWqcortJCOHYnfYvi-2" edge="1">
          <mxGeometry relative="1" as="geometry" />
        </mxCell>
        <mxCell id="ne6fWqcortJCOHYnfYvi-1" value="&lt;b style=&quot;font-size: 16px;&quot;&gt;Customer-Portal&lt;br&gt;&lt;/b&gt;&lt;i&gt;(producer index)&lt;/i&gt;" style="rounded=0;whiteSpace=wrap;html=1;" parent="1" vertex="1">
          <mxGeometry x="30" y="20" width="140" height="70" as="geometry" />
        </mxCell>
        <mxCell id="ne6fWqcortJCOHYnfYvi-2" value="" style="sketch=0;html=1;dashed=0;whitespace=wrap;fillColor=#2875E2;strokeColor=#ffffff;points=[[0.005,0.63,0],[0.1,0.2,0],[0.9,0.2,0],[0.5,0,0],[0.995,0.63,0],[0.72,0.99,0],[0.5,1,0],[0.28,0.99,0]];verticalLabelPosition=bottom;align=center;verticalAlign=top;shape=mxgraph.kubernetes.icon;prIcon=pod" parent="1" vertex="1">
          <mxGeometry x="73" y="200" width="53" height="43" as="geometry" />
        </mxCell>
        <mxCell id="ne6fWqcortJCOHYnfYvi-3" value="" style="rounded=0;whiteSpace=wrap;html=1;fillColor=#d5e8d4;strokeColor=#82b366;" parent="1" vertex="1">
          <mxGeometry x="40" y="320" width="670" height="80" as="geometry" />
        </mxCell>
        <mxCell id="ne6fWqcortJCOHYnfYvi-6" value="" style="shape=image;verticalLabelPosition=bottom;labelBackgroundColor=default;verticalAlign=top;aspect=fixed;imageAspect=0;image=data:image/png,iVBORw0KGgoAAAANSUhEUgAAAOEAAADhCAMAAAAJbSJIAAAAt1BMVEX/ZgD/////YwD/fT3/hjb/+PX/hkv/693/4dH/eSL/XQD/8Of/YQD/iUr/5dT/eB3/1Lj/eCr/agD/9u3//fn/8eT/6Nr/7uX/qnP/8ub/38//iUT/hDn/fy7/fyj/iDz/r4P/oWX/kEb/xaD/lU//m1r/z7H/cAj/vJb/nWr/pXT/2cD/tIn/wqL/gj//4Mj/sHz/jVn/wZf/kFP/yrH/hjD/17n/cBv/1ML/wab/nVv/ron/v54E+HFaAAAEN0lEQVR4nO3db1faMBTH8TTKgBBEQ0cZqOAQigiogw3/vf/XNaqA4qDcIMXc7vd95KN78rGg55SQCu+tzPFF3oi1lX62yp5dmdZlaf1Ek293bCfaJxY/+cenSsv1QCG0Crs2K8oMQqXjBkqt8uPM7lFLLYSZroldzWxJV1ny6EJPxP7CZhObCV/GhbBLWE50Ha+oCypTgNNUMyHarLnwmracKbFPG+wPqBNlJzFd1Fx4uvklOluPCUiDgzPyxGGir9OZ8Ia6nOmr6pY0eKDIE00rQeBcWKULZUiZ619aTLzag7BIfM9EKZ8wNxPSJ+q7JF+mM+GBjfA7RUifJ+Q3ysR9Cin/Eu2E9H+y+xHu/hpCCCGEEEIIIYQQQrh74Q8IIYQQQgghhFBR7oxBCCGEEEIIIYQQQgghhBBCSNmJxltI2osBIYRfKsT7EEIIIYQQQgghhBBCCCGEkCKkzIUQQgghhBBCCCGEEEIIIYQQQgidF+rUC2nXkH4shoNCynqO6EebCDnMuSXUvwhzby2EYpLkGTxbCOVw8+1E31gMFLqX4HFYWwiFqG4ca3E6TZQZOCY0zULcTD+4sBoXneozSOyImq2EUo7Gucr7jl7KvVR7Jh8R9W5ie1zL7ahK+dPC6TtHluqvNU5nnc3Km/hz7dZN1GF+N53Xe+Pg08Lot76uLXgbJlqmtbm7/rzQ7fRJJ+VCIU025UKhf6ddKNRN2oW6mnahLKZeeAAh9yDkH4T8g5B/EPIPQv5ByD8I+Qch/yDkH4T8g5B/EPIPQv5ByD8I+Qch/yD8sna2lcxNoVbm/LTxb4fnJv6ptCtyUahM9T4ICqsKKvcXhGfdvs89odQXsftyvUrbalunc0IZ/on1RbUmNtvRHRPK/PV62aKOxQZ5x4QypH0hoWvx/Fa3hLpJ+z6C3yYT3RLKkxoJ6Hm1mIe/f5jplFARL6HnlUfkR0U7JRRjItDzH6hfN3JKKE8of0hfq5GHOiW0+PJajfqwaLeExSOyMFeCcD4Uwn0GIYSrh0K4zyCEcPVQCPcZhBCuHgrhPoMQwtVDIdxnEKZAOKTe8o7utVGHOiUs0e+X3jO95/1ABfpdlve8hb6K//j3rUKD6TUMqW/EY6afrgndJn5+eE5eqGNCobok4SP9oDvXhEINNp9zl+nbnFXomnB6FYP1tpeyPda7TabvxdE47szJykPR7lA594RCh6OnQed4VZ3npyL7PVFRWprJyaomRqdhX9tLKd+buMsg5B+E/IOQfxDyD0L+Qcg/CPkHIf8g5B+E/IOQfxDyD0L+Qcg/CPkHIf8g5N9/IBwuCUcpFI6WhH3rZzI6n+4vCbNfvZ4Eyi4JvarN0205pOaPg50LC/V0EVW98EHo5UYqPX9tpBotTtpYCL2gaZTe2bNAvzKtTPNtJ+ebcGpstRuH/Gs8tt7vVP0LCa+Ksh+EVBkAAAAASUVORK5CYII=;" parent="1" vertex="1">
          <mxGeometry x="670" y="322.5" width="40" height="40" as="geometry" />
        </mxCell>
        <mxCell id="ne6fWqcortJCOHYnfYvi-29" style="edgeStyle=orthogonalEdgeStyle;rounded=0;orthogonalLoop=1;jettySize=auto;html=1;entryX=0.005;entryY=0.63;entryDx=0;entryDy=0;entryPerimeter=0;strokeWidth=2;" parent="1" source="ne6fWqcortJCOHYnfYvi-17" target="ne6fWqcortJCOHYnfYvi-24" edge="1">
          <mxGeometry relative="1" as="geometry">
            <Array as="points">
              <mxPoint x="100" y="570" />
            </Array>
          </mxGeometry>
        </mxCell>
        <mxCell id="ne6fWqcortJCOHYnfYvi-17" value="" style="shape=cylinder3;whiteSpace=wrap;html=1;boundedLbl=1;backgroundOutline=1;size=4.25;rotation=90;fillColor=#e1d5e7;strokeColor=#9673a6;" parent="1" vertex="1">
          <mxGeometry x="88" y="337.25" width="22" height="56.5" as="geometry" />
        </mxCell>
        <mxCell id="ne6fWqcortJCOHYnfYvi-45" style="edgeStyle=orthogonalEdgeStyle;rounded=0;orthogonalLoop=1;jettySize=auto;html=1;entryX=0.005;entryY=0.63;entryDx=0;entryDy=0;entryPerimeter=0;strokeWidth=2;exitX=1;exitY=0.5;exitDx=0;exitDy=0;exitPerimeter=0;" parent="1" source="ne6fWqcortJCOHYnfYvi-18" target="ne6fWqcortJCOHYnfYvi-43" edge="1">
          <mxGeometry relative="1" as="geometry">
            <mxPoint x="333" y="420" as="sourcePoint" />
            <Array as="points">
              <mxPoint x="326" y="570" />
            </Array>
          </mxGeometry>
        </mxCell>
        <mxCell id="ne6fWqcortJCOHYnfYvi-18" value="" style="shape=cylinder3;whiteSpace=wrap;html=1;boundedLbl=1;backgroundOutline=1;size=4.699999999999932;rotation=90;fillColor=#e1d5e7;strokeColor=#9673a6;" parent="1" vertex="1">
          <mxGeometry x="316.5" y="303.5" width="20" height="60" as="geometry" />
        </mxCell>
        <mxCell id="ne6fWqcortJCOHYnfYvi-19" value="" style="shape=cylinder3;whiteSpace=wrap;html=1;boundedLbl=1;backgroundOutline=1;size=7;rotation=90;fillColor=#e1d5e7;strokeColor=#9673a6;" parent="1" vertex="1">
          <mxGeometry x="463.5" y="331.5" width="25" height="66" as="geometry" />
        </mxCell>
        <mxCell id="ne6fWqcortJCOHYnfYvi-23" value="" style="html=1;verticalLabelPosition=bottom;align=center;labelBackgroundColor=#ffffff;verticalAlign=top;strokeWidth=2;strokeColor=#0080F0;shadow=0;dashed=0;shape=mxgraph.ios7.icons.envelope_(message);" parent="1" vertex="1">
          <mxGeometry x="85" y="465" width="30" height="30" as="geometry" />
        </mxCell>
        <mxCell id="ne6fWqcortJCOHYnfYvi-30" style="edgeStyle=orthogonalEdgeStyle;rounded=0;orthogonalLoop=1;jettySize=auto;html=1;strokeWidth=2;entryX=0.5;entryY=1;entryDx=0;entryDy=0;entryPerimeter=0;exitX=0.995;exitY=0.63;exitDx=0;exitDy=0;exitPerimeter=0;" parent="1" source="ne6fWqcortJCOHYnfYvi-24" target="ne6fWqcortJCOHYnfYvi-18" edge="1">
          <mxGeometry relative="1" as="geometry">
            <Array as="points">
              <mxPoint x="190" y="570" />
              <mxPoint x="190" y="333" />
            </Array>
            <mxPoint x="180" y="560" as="sourcePoint" />
          </mxGeometry>
        </mxCell>
        <mxCell id="ne6fWqcortJCOHYnfYvi-40" style="edgeStyle=orthogonalEdgeStyle;rounded=0;orthogonalLoop=1;jettySize=auto;html=1;strokeWidth=2;exitX=0.5;exitY=1;exitDx=0;exitDy=0;exitPerimeter=0;" parent="1" source="ne6fWqcortJCOHYnfYvi-43" target="ne6fWqcortJCOHYnfYvi-39" edge="1">
          <mxGeometry relative="1" as="geometry" />
        </mxCell>
        <mxCell id="ne6fWqcortJCOHYnfYvi-24" value="" style="sketch=0;html=1;dashed=0;whitespace=wrap;fillColor=#2875E2;strokeColor=#ffffff;points=[[0.005,0.63,0],[0.1,0.2,0],[0.9,0.2,0],[0.5,0,0],[0.995,0.63,0],[0.72,0.99,0],[0.5,1,0],[0.28,0.99,0]];verticalLabelPosition=bottom;align=center;verticalAlign=top;shape=mxgraph.kubernetes.icon;prIcon=pod" parent="1" vertex="1">
          <mxGeometry x="121" y="542" width="57" height="46" as="geometry" />
        </mxCell>
        <mxCell id="ne6fWqcortJCOHYnfYvi-26" style="edgeStyle=orthogonalEdgeStyle;rounded=0;orthogonalLoop=1;jettySize=auto;html=1;strokeWidth=2;" parent="1" source="ne6fWqcortJCOHYnfYvi-2" target="ne6fWqcortJCOHYnfYvi-17" edge="1">
          <mxGeometry relative="1" as="geometry" />
        </mxCell>
        <mxCell id="ne6fWqcortJCOHYnfYvi-27" value="" style="dashed=0;outlineConnect=0;html=1;align=center;labelPosition=center;verticalLabelPosition=bottom;verticalAlign=top;shape=mxgraph.weblogos.json" parent="1" vertex="1">
          <mxGeometry x="83" y="269" width="28" height="27" as="geometry" />
        </mxCell>
        <mxCell id="ne6fWqcortJCOHYnfYvi-31" value="" style="dashed=0;outlineConnect=0;html=1;align=center;labelPosition=center;verticalLabelPosition=bottom;verticalAlign=top;shape=mxgraph.weblogos.json" parent="1" vertex="1">
          <mxGeometry x="174" y="467" width="27" height="26" as="geometry" />
        </mxCell>
        <mxCell id="ne6fWqcortJCOHYnfYvi-39" value="" style="shape=image;verticalLabelPosition=bottom;labelBackgroundColor=default;verticalAlign=top;aspect=fixed;imageAspect=0;image=https://serverok.in/wp-content/uploads/2019/11/mariadb.png;imageBorder=default;" parent="1" vertex="1">
          <mxGeometry x="374.32" y="619.5" width="68.86" height="41" as="geometry" />
        </mxCell>
        <mxCell id="ne6fWqcortJCOHYnfYvi-47" style="edgeStyle=orthogonalEdgeStyle;rounded=0;orthogonalLoop=1;jettySize=auto;html=1;strokeWidth=2;exitX=0.5;exitY=0;exitDx=0;exitDy=0;exitPerimeter=0;entryX=0.5;entryY=1;entryDx=0;entryDy=0;entryPerimeter=0;" parent="1" source="ne6fWqcortJCOHYnfYvi-43" target="ne6fWqcortJCOHYnfYvi-19" edge="1">
          <mxGeometry relative="1" as="geometry">
            <mxPoint x="448" y="561" as="sourcePoint" />
            <mxPoint x="463" y="440" as="targetPoint" />
            <Array as="points">
              <mxPoint x="409" y="364" />
              <mxPoint x="423" y="364" />
            </Array>
          </mxGeometry>
        </mxCell>
        <mxCell id="ne6fWqcortJCOHYnfYvi-99" style="edgeStyle=orthogonalEdgeStyle;rounded=0;orthogonalLoop=1;jettySize=auto;html=1;strokeWidth=2;exitX=0.5;exitY=1;exitDx=0;exitDy=0;exitPerimeter=0;" parent="1" source="ne6fWqcortJCOHYnfYvi-24" target="ne6fWqcortJCOHYnfYvi-98" edge="1">
          <mxGeometry relative="1" as="geometry" />
        </mxCell>
        <mxCell id="ne6fWqcortJCOHYnfYvi-43" value="" style="sketch=0;html=1;dashed=0;whitespace=wrap;fillColor=#2875E2;strokeColor=#ffffff;points=[[0.005,0.63,0],[0.1,0.2,0],[0.9,0.2,0],[0.5,0,0],[0.995,0.63,0],[0.72,0.99,0],[0.5,1,0],[0.28,0.99,0]];verticalLabelPosition=bottom;align=center;verticalAlign=top;shape=mxgraph.kubernetes.icon;prIcon=pod" parent="1" vertex="1">
          <mxGeometry x="382.5" y="542" width="52.5" height="44" as="geometry" />
        </mxCell>
        <mxCell id="ne6fWqcortJCOHYnfYvi-50" style="edgeStyle=orthogonalEdgeStyle;rounded=0;orthogonalLoop=1;jettySize=auto;html=1;" parent="1" target="ne6fWqcortJCOHYnfYvi-1" edge="1">
          <mxGeometry relative="1" as="geometry">
            <mxPoint x="273" y="55" as="sourcePoint" />
          </mxGeometry>
        </mxCell>
        <mxCell id="ne6fWqcortJCOHYnfYvi-51" value="" style="image;html=1;image=img/lib/clip_art/finance/Credit_Card_128x128.png" parent="1" vertex="1">
          <mxGeometry x="198" y="13" width="52" height="59" as="geometry" />
        </mxCell>
        <mxCell id="ne6fWqcortJCOHYnfYvi-53" value="Clients" style="text;html=1;strokeColor=none;fillColor=none;align=center;verticalAlign=middle;whiteSpace=wrap;rounded=0;" parent="1" vertex="1">
          <mxGeometry x="302" y="327.75" width="40.5" height="12.5" as="geometry" />
        </mxCell>
        <mxCell id="ne6fWqcortJCOHYnfYvi-54" value="Infra" style="text;html=1;strokeColor=none;fillColor=none;align=center;verticalAlign=middle;whiteSpace=wrap;rounded=0;" parent="1" vertex="1">
          <mxGeometry x="74.5" y="359.25" width="44" height="12.5" as="geometry" />
        </mxCell>
        <mxCell id="ne6fWqcortJCOHYnfYvi-55" value="Status" style="text;html=1;strokeColor=none;fillColor=none;align=center;verticalAlign=middle;whiteSpace=wrap;rounded=0;" parent="1" vertex="1">
          <mxGeometry x="446" y="359.5" width="44" height="11" as="geometry" />
        </mxCell>
        <mxCell id="ne6fWqcortJCOHYnfYvi-78" style="edgeStyle=orthogonalEdgeStyle;rounded=0;orthogonalLoop=1;jettySize=auto;html=1;fillColor=#e1d5e7;strokeColor=#9673a6;strokeWidth=2;" parent="1" source="ne6fWqcortJCOHYnfYvi-56" edge="1" target="ne6fWqcortJCOHYnfYvi-43">
          <mxGeometry relative="1" as="geometry">
            <mxPoint x="380" y="570" as="targetPoint" />
            <Array as="points">
              <mxPoint x="520" y="596" />
              <mxPoint x="520" y="620" />
              <mxPoint x="490" y="620" />
              <mxPoint x="490" y="570" />
            </Array>
          </mxGeometry>
        </mxCell>
        <mxCell id="ne6fWqcortJCOHYnfYvi-86" style="edgeStyle=orthogonalEdgeStyle;rounded=0;orthogonalLoop=1;jettySize=auto;html=1;entryX=0.995;entryY=0.63;entryDx=0;entryDy=0;entryPerimeter=0;strokeWidth=2;fillColor=#e1d5e7;strokeColor=#9673a6;" parent="1" target="ne6fWqcortJCOHYnfYvi-83" edge="1">
          <mxGeometry relative="1" as="geometry">
            <mxPoint x="701.9047619047619" y="574" as="sourcePoint" />
            <Array as="points">
              <mxPoint x="702" y="540" />
              <mxPoint x="625" y="540" />
            </Array>
          </mxGeometry>
        </mxCell>
        <mxCell id="ne6fWqcortJCOHYnfYvi-56" value="" style="shape=image;verticalLabelPosition=bottom;labelBackgroundColor=default;verticalAlign=top;aspect=fixed;imageAspect=0;image=data:image/png,iVBORw0KGgoAAAANSUhEUgAAAOEAAADgCAMAAADCMfHtAAAAk1BMVEXmUiz////kPgDmTiXlRhfqeGHlSh7woZPmUCnkPADlTCHlRRTlSx/mTiblSBrlQw7rfWf2x7/86+j3zsftjnz99PL++vnulIP529b649/wpZfshnLqclnoYkPnWDXsgm31wrnpa0/xrKDztqz30szys6jvm4v53dj87+3nWznoYULpb1T0vbPti3joZ0rmVTHiJgADktzHAAAPy0lEQVR4nN1d6WKCOBAOASmHEG29ag+PevRQu+//dMstRwKZTLDufj9tRT6SzD0DMf7vIDf4jenj4um03z4c5pPJZD4/LLcf66fj4+wGP230zPBz93EYfTPKmG+FoT0cehGGQzsMLZ8xGl5eHk6LaZ93YPTH8HF9ePUpC4emQ4RwTNti1Bstnz57ug2jH4bH/chilh2IqdV5+pScT4893Iqhn+HnacVYaEqSK9H0LOrMxz2cTa0Mn7dv1IKzu7L03cGH7nOpj+Hj9p2GLYdODmbo/py0rqQmhrPTRQO9FIHlrp703FYMLQyPE2rJyhUpmMxb6hKvGhiOL9TTSS+BY7urBf7eDA0M9wHTunxXmPQy/nOGs6VvaTp9PATsff23DJcsBN5yaMO+4Pi/WI4IhnsfyM9hm9MWSDH60hdOsCozHDsW8F49Z2cY3/BN7bCf59szfN4w6K2Gr9H3dgxMMELgTtSNADWGcxcsP+1B/MUXRb0yZB+3ZDj2oIcpEv2X5KtKS5iAXRS3KpzhbEQVzpKfGNSP6gyjrbq8DcMxU9loNNXdascwh/WlsoxQhi9U5d7MUfZ4fAzDaBm3fTM8OvATGMPNzOgnHENC/B+w+whiuHXVTLThPLvAArVLY5j+rkeGA9X7y5fQeFTa4xU4UIEjz/CRqPpI5qq4CJ5htFMH/TB8UtARGdh1Yw3UozhXDH8hYTlZhltX+YYcu3QZoLHOR0ABh1GS4RkhIgo5E+EZLWpSuCfNDF+hfkQZftn7cTQ5zFRa3sgwnL2pacH8Zsoq7EF8KRh3NtHHcPqOEg/Oe/liR6E0tX9gFP2V6IahDKcOTv6Z58rlvgQ8/PkJKIVCOa3RyfDTRIbS7OqJ2fN5hCvjTcmnRjOcethYoVUVe1Ou2oncR/4f8BQ7GE4ddDDUrwU9V7xNz6ZKfofMRm1nOPvF2yB+LVTG8xHZulXKtlDsFjftDN80GFkNZ6CpEs14t3HXtvvqnUqjleHrEE+wbJWmaFpubmxnggVNdvku1d/G8AVqRH4xToyf1RMsDZHiJeug+jRphwHXwnAJtSHNifHRTAGzRnBlVPuf1H1Udqzc9hyVmOEYLr1pJJsudS+SNRKBT9VHZ74YKIZO8xekGD4ruEvJkbvUVog2w9VeZS/TY/KheggneG/8ggTDWaBw8MN9/M1h9Zu0efFlWTE4b+mH7+pehz1SYPiqErLwEk9wV1l956t58Uq4Jszi9a8I24K1RBkFDJdKeyYLi57LT8fkmR2bEpt8F58xqfIWacNnuFCLWQQ/yben5SXy5pzrn64edfEEUAEOxxYmp7gM60dJmuEm/X7ZAAt5G2h2fQZWnuPFxcM9oYXKZThS3DDZGlYWsW54p3gpBG4RAUDGUoXpNx7DtWq4qAiMls5UU+HHKML7+bJHUNw4OVxBiJHDcKr8MHnRe46yiJH/Q2kTo0RN9Kwu0gzVo7bX2y38h1zb1THJ6JSs1jUmoBfB56uMJkPlPVp2BQtZ4wm8m3ybsutHCk5+FS7XemswnCFEGi2OQrFNLZHln/5DRVtukPEEkxvUaDA8I3xCv05AJGiM3OGt6JIPbMif8aqL6gwVdX0Cs2Qe5h47MwRIlX4lAIDepk4owVChoqdAYnhX18MU2sRpBqMSD1cMZJTv4NDJ8ITJnJR35JE1SNcQ6ySn+vO4QoYYHKVYY4ip83XM8pXSHUfF1ROXoJI7TSAKiEuDY+dXGS4xZ31YsbGTwJLTEiSJNWLdaF1jKxkIbTgZlVuYoUzDalAtUen2g5hh7Es0jFZ08q1p2VQYHlBZNL9y4cQZYkcxw9iXaOgSlBxIwOq1mmWGOGlds15iAm2bNJFFbuNT9El0vlsY4pawFvmNCXB9wxyflDi/jU936GqN+iKWGOKW0BlWLxx7KHxDMYfL1ZavWJ0Y1Gz9EkOl1EgBu65saUMX1GA6Q46CVoliVlHbTCWGuENO60IlcBofVXEJuPbABJssqRngV4Z7lHvWDBq+eR35y5HJjXCoO+A5qmbGleEvSoo1hcqr276ExtzjKxPcaSF1qV4wfMJt0qZQGXQlL5c25UoinN0Ro5JIKBjiKs6C5o5cdVWCfoRNdZgAvYiV850z/MSJMKvpe3ZW1419j/8H9CJW9GzOcIl7bpwEUyd2TBAdM+ZYcVrOyuYMcSav9wInGGk+kXv8iNWJZVlD8ueJumLD3JXB1BVWGaDLUEtR2ozhBBeN9fk32gFX6FshBXvFLcsY4q4oCop2wBMb5sgIf9niJTqeWaOgRA4bcS8Tzs0hZdGXMkRuUmHIsB1ncZ0Ium3hqr5ShrjwiHcW3mkrli1tvuhtWlhURMMT46cIu7FukcDIXVXaVwlDpJlEFQc9HFuO7xiZiLrKhoQhLjhSSnLCMGtxPj6xllvhkRP81Wy1vsCYYsvfsHHFwmGNGSJTk4q6ogMvaLPm88oQeapVrO5uoLtrcn0RMwR2OtQgymMjgW5VzJMMBH0Mh7ySIDzQ/UP5QSTo1lVhHhsHfCzDneYMkdqwUQOsCegMRpZfJriiQKKu77uAyUYnyMJ/BP2wBCVBaKC94Mw0Jdh6skauRxfQCjHLfBGsWObWj+rAHD2aKVXUBKtaVV2nThzQzR5pSJ1gLZqe1KGGuHBm1RBsrRUvQ6YFyAguyV0CgvTvW4sR/phh2ttJsLbDHa9hWpdBsPYft1JdB/DnkCRlbmSH3KWmSkBfBnhtkaoLgq3MzavXtQNdxhepizj/RQSdx9Jwgp4YXvDDChOngCyxilWQ5kQDXeKWVWUT9HYXVgHjgC9YyFxXgjZwOelfHcCPI8qy3WSA3e49KUSsfIiRGDUEOI2iCV77nQag9xbJ7C2i2EJdAr9mBAsdo3oSr4B8oa/TSyhKy6ieJHNLftHX6cUH1jJuKfFdNVynl1gUupI2RmJRarhO0cmrEc86xp7pY9iDNMWHMGKkDPHnsI/sk56RYClDvCwVNY0h8IHNAKdIJQ06tByjoxoYDE0zzxLvnGykL+ZZQ5GFp3kRTy1+hRn60nZmYlDK26XeYX3YuCz0eI+EanyZgWHY3KfuROSoPVrupG85tUulXem0IOF4mvxS365/idM5oY5m91VEjlFntd0lBqK0GEpyM2QibeEWPbDT3XLAmFVZzFC5XKGBau2l40Xkfs/7XWFWyKchUv/wQVrzVGsunk+T92gxiw3janOEixB1Qu5rsq+9MEne60hKmYj8oPtmRGb6tHzNF1Ob2t8mSxS/P+h78rFoVkEAArxpnAYwy49fJxst5lcsgCy1EszG5dxgaDE2WO4EJR6AfugkwEIAyTWxEzFb7M9f/4g7YuUxpe7msG7b8YBJPYlLQI4AA4m21t/PdNhuu67jDKnXTqr3CCSmpVgLrBWAqoNUNBDQjK32drtbQDz/tIm0FJqAah7+fhEh9QtpeSKB5QdEQ2BuBcgSZp45geXpeqtLkAQoYZ26rQRYewmZpK0fsJ6CNMxJgHE7rSY2GLAqyrTPhUAHFlr6TGwwYCMfshNFwIND/07YABu+shoKAu6Fq3eD3w7AupisSYJUBuDJffOP9ukeGIDLbEyikCLoamHuB+CmxGzgUFy/B80n/408/QYmOvMikZhhfeptJ+y+KkxaMIemavJcQ8wQnm5l/dR2t2ANTmTk9QUxQ4Vcnb6ojBwUMjX53K+kjhbeCuc4NyU44wZpW1HUvSYMFUpMu4Ze6IXCbPiiRCRhqNJx4fdVk8jBQKGIz81DkAnDmUr/e9csdH0Az4Yn5ZbBtJ5dqfLfH9wGG6WXJuyrDKGGWwrzNlAqabqGBVOG6JmM94ZSQ102cUDL28LuCKX5LRlD/Di/+0Ip7JnPNtFS3XE3KA8Eyhmi+9/vCv66yVBHOef9oDzGopgTpaXM6k5QKXktGMJLWALrNoBbNBXPp2A4A79VRvLNbnhA76w6eOw6kQ5aSiYegvzXDKu56itDaKTnbhnWwkilyZDAJpW7ZVirWS4xBGWu7pdhfWx5eQYtzDi9V4b1kaFlhrBFvFOGjlX7dmWWMWjC7Z0ytOo1LxWGoAm398mwPs64PpMdIk7vk6HfiB5VGUJ04l0y5KRUajPFAbPu7pIhp5K3xhDwDpZ7ZMirxq7Phf+Qvtw9MuRl4BuT799kg3d3yJD3ipImQ2mNcX8M+U3XzbcXyKYi748hv2GA834GyXaOu2Po8V1yDsOd3D69N4aOzy+b5r1jQ3KfmvRGkLobQgUzRrlvEcGN2P8bCKsnuAzx75i4OcRpd/6bYLb/ufiwuIpJ8K4bpZfl/iFaXpcrYKhQ/PCXGLaULoveV3T8Lx3F1rcuCf92Usu3mTYKakM6WjtdxOznKrl987x8QGCpNIfEbZ223bK+rwod4z6y0F1lwBdrr3dt28Hv8AeqOrw8h8I8oLCjULKN4RT+NsSWNzpKAV4xMewqP2tjaDxTKEVs21AA/UGzs7GzlSH8vavIaabg4VAB6Ry13c7QeIJSxM05gZYQBl73z3UwBFPEzcUCvprbCSW6BbsYGmMYRc6rrQCA5tFkmls6GUIpYlpqYAWEwVCq37ObIXCjYqQpyPM2A7mGVgmGxgKkNNQXsW3gR/NJvkvKNBmGxrMFsG6U55zMIAaGfZF9I4MUQ2P6CxByqs0YLwA72JcP9MkxNIwfQGVSe9u+CJCeEQooo5dlaJzlJXnwrkAQEP1yXMhwMWmGxt6Vn0YEn0v7KX8ITQv0NgZ5hsYilDb8bai0+ZSvVw8vMMMQwNCYbaTFub0B3cVzKE2QQmdPQxhGLrj0TjUJQNyMpRWuycAuNoyhsTBlRTpAHEykpai/gbsuQIaR1pJ+3uxHahl3RDY2E7htbzIXAczQeApll9F0D52Gx+NA+on5b0p6Fs7QmJ2lb8qmh1bz+LhyZeWzSVUWUI1hdBp/pd0c2x2IZMP0443K8nPYQHU0jhJDw9hSaUPV9Onoo9FUu9huqLyKCB31mX6KDI3piyvvb8QT8zbz7elpt1jsxqfl+YsyeXpkSDEzDlQZRlr6h0IixoEXWj5jzPdD2wR5uu4EFd1SZxjJ+TeGn+7fyW+FnDSCYRhpjp45eu4K3RaPYxit44+8zIHCds8a2v6xDCOd9uLy543i4FjsQcvsNDzDSK4uh0xzD6pHv3W1iutgGOFp4MITVSJEGnSib0CMJobRQu7fACq8hZ7lDrS+MUMbwwiP2zdqYbar4/l0cNI8w14nwwifpxFjavUGkeFjT8b630urmWGM3fInMsogdovjWYyN9v1MhOmBYYzF/oVQZg27eDqmbTH3e3Lqb95NTwxjTBenw8BxGbNC2zODojDXcQLTHNqhzyj9Wj2se56r1SPDDI+L8cf2cB69br7ffwn5/frevK4mh8jTON5kGuq/JNAM5+heQ0wAAAAASUVORK5CYII=;" parent="1" vertex="1">
          <mxGeometry x="682.82" y="574" width="40.18" height="40" as="geometry" />
        </mxCell>
        <mxCell id="ne6fWqcortJCOHYnfYvi-77" style="edgeStyle=orthogonalEdgeStyle;rounded=0;orthogonalLoop=1;jettySize=auto;html=1;exitX=0;exitY=0.5;exitDx=0;exitDy=0;fillColor=#e1d5e7;strokeColor=#9673a6;strokeWidth=2;" parent="1" source="ne6fWqcortJCOHYnfYvi-58" edge="1" target="ne6fWqcortJCOHYnfYvi-43">
          <mxGeometry relative="1" as="geometry">
            <mxPoint x="380" y="570" as="targetPoint" />
            <Array as="points">
              <mxPoint x="520" y="650" />
              <mxPoint x="520" y="620" />
              <mxPoint x="490" y="620" />
              <mxPoint x="490" y="570" />
            </Array>
          </mxGeometry>
        </mxCell>
        <mxCell id="ne6fWqcortJCOHYnfYvi-58" value="" style="shape=image;verticalLabelPosition=bottom;labelBackgroundColor=default;verticalAlign=top;aspect=fixed;imageAspect=0;image=data:image/png,iVBORw0KGgoAAAANSUhEUgAAAOEAAADhCAMAAAAJbSJIAAABg1BMVEX////2vCH3zx/3zR/2viH30R/2wiD3yx/2wCH2wyD30B/2uyHydSjxZyrxbSnygifzjib0oiTziCb0mCX0niT1piP1siLxcSnyfyfzkCX1riLydyj0lCX1qiP0myT1qCP2wAD3yAD2uAD30ADzlQD//Pb1rwDyhwD//PL+9/PyewD0pgD98tv624X756T52nHxYSL98OXyfgDzjAD0nwD988/++un88Lz53FT2o4jwWxPwVAD4uqDxbBzxaAD73Mz5xa3ydRb96d386Mj73K340GH53WP65YXzd0T6zr33rZTxaBbwZQD2oX3zhkv4vJ75y6/3tYb728T4xJL86NX2rGr1pEv717T1pDz2smL4wYH60qT2rz773aP3v0f5zoH63ZH4zEbzgVbycz/0jmf1mnnvSQD0jVfzfjr1lmT0iGH3tpT0llzzhzzzhzH2qnv0kz/zkjX3vIb1qmD2sXL6zaX2qFT3t271skv3u2f5z5L5yH33v172tzz5zHL3wz753nKED2++AAAVpElEQVR4nO2a+UMTSbDHx8ULRbkEDCCEhIEMBmQ4gnIIBFxEPAEFRcBjfa4rnivqeuD+6a+7q7pq0gyahOGl4e33p9nMZna+VPWnjqzjFKVxv7jv/af/9J92p+zspavZUr/E3unak+GR4d6R2VK/x97pSe8pod5LpX6PvdMlcPhXqd9j7zQ7LB2eeuqV+kX2TFlwOHyAUdMLDg8+aq6V+j32TtfA4R+lfo+9E6Lm9MFFjT+iHI4c4KFiTkbw9Byixs+OHjisPu89LTQnUJMdffbk1PDIaKnfKGpdm5MOJWqejfT2HkTozCqHp+ccZwKgc6rUbxS1/OvK4XWf+puDBh2vAWI463gQwuHxUr9S1PpjTKMG+pvhA4qa088Fag5of4OoGSPUXC31G0WtLMI064xjB3fgUPPn/xfUvHScq6fU1YFAjTc7QdfXxhqExgRqbqiEnXtWuveKRrPX/ng6MtxL89LsnHTY8KfnTMCRvOmW8vV2L+9/hmX/yauZrIphw5hADfQ3Y/t9WMTVzAR9oAw2yAFqBDq4/Y6aP8wt8HM4iAI1iNX9jppRVfZ6n9AHL6XDirEXGjVjO6HGy07si/BiYR+mD2bnKoQCqPkz5FvZiUtPTo2M7IulnDdibIGzl6XDisu+Rs31ENRc2k/z8VMTNehQoGauYSfU6KXc/91r7kLPtqNGOpSouXn6tMRqCGr21VJuVO3XTvFpe6kcVkjUAFZfhHzr1D7a/48Pw2mjD2YhTZvEAAX9TUXIt/6C+dhu1HjjE8+ejjseEPM6ocYn1GSvK4c5qMnOXnryF+3/n4Q81xZdezo8PNw7POq4V/W8pNUkI1gxKQaoCuXwMqEme7VXfKl3mFAzHPpsO3RpWC8pnsG8dINuvahoEpoUqHmuknSMUIOlZWQcVnFqKWeteB86ijME3Xo5KR02yQEKsMqoedqLpcV7akbeOuE+dMRzxsEh/+A0Cw4vS9SoI8mc5dLCSzlbxUuK7BiEg06bjw593d9UUC6O0nrqEi3lrBXvQxE1E/qO96dyKFDjNwFWyTx2sSO0lLO5q7lB+9AXKohjAdRMatTcVA7Hbuk7Xq/uYnEpN2bxz2+ImqeIGrWaQSFqNhznjYEa7+qp/YMalXCn5T50HFqXBhM1Z+WVam94V/OsV5eW56f1Us5Weac1YHxweJkHqMmz0uCkyMVJqI2MGkjOq3r/P2bzAPWElhS4mpnQd7xXGjUuYpVRc12XFokaWMpZqxsUhBcwQzBqNprOCknUoFdCjU+Rz0Lkx2zuaijhRmE1w6i5M6kcStQAVtk8l5YxWsrZKuxlRBDGVWFvqKCEm1cOz77ynAlI01eEGi4tN2kpZ6vcOb0P9a5DYQ+iRgVRoOYypCmZ5y725c7zsS3ifSi0Lowa5yw4nHcciKG8AmHkGzxcylVYjZoxvQ/FGYJ3NRvg8I7IRRM1cw0SoWJg5knZWvFPL7dgNRMcoJTFDd3fTHIucmnhpZytwiXFnIeokfMSClHz2nNuC4fykm5xacGlnM1bf3QoUHNZnERR2HlX06UcdvkEHUYNVInntJTbKM3L56WbULNHHfcVNGe36VYlOLzteAwdEHaxorTAUq5psiTvnp8uEe9vwGl7Q7cEaiorK2VXg9DhAYpKi0ANTsrWSu1D1WYU56VXdOtWV6WU6mp0f4NqasDS4tKkbK1wSXFdoAbLHrUu8+CwyxGogTylb2FpuRGclG2VN6bCcXler2YmeVeDDkVXA9DhAYpLC0b+ZvjTrRDz/qaRcO5bcDjveK8BOjxAYR2UNQW+VZqXz0u8D31houYFOLwTghosnnI+Boc272rG9I8wt8yEewlp+laj5iyjBmfGicCkbK2yWNF8QI3wwQMUOOwTqIEr5iyXFoz8nZK8fF7ymioQMP5ZPS+h/D5wuChQo64qGTVUWgRqxJeabO5qntPk8AocUlfjSdTU1PTNOy4YDKJGl5ZxnJQt/t+m3tDksAGFnVFzV/gTDkUGIlap7PlN4HAxMClbq9uUcLdMniz0SYc14oM7EEQ2f1OjxnltNK32CXnf5Ot5qZJRAw7lAIVYpVx8Q6jhSdlWeU26l/HAYRejRhms6cs6i4jVHNSIf/dmcFK2VrwPrTRQ47wGh0uOgw55gMJW1Q9MytbqJwn3d00ANTWVNX2b+g6XFp6UrRUuKQTvFWoqt6Pmb4EauGLUcGnpUnNk1+2wZ9shzXuf5iUTNe8EavCKvvWGSsvG2dxKYqHQoUANOlzUd3zwJQCTxSsyP8GrOJqUrdUrmhywsHPCdSpfnQI16JBR06VLC0a+piTvnp844d6YhR1Q03mHoEOocbt0adGTstWogdbScTbhZV/TrYVOQk2NvkJVwvETlmvMyFsnXFIIwIzTagY131lTJRRzNGqq6NYb5bDyjmxfVa20GDUeOpx3vJptqJEGqzoZNSl96zbNxy/75AhS87Y0b5+XVKWv7JqA1UxNZR8n3DtwuOR4VXAkA6jR8caa0leSd89PdyZpM6rmpZoPdOsuOHxP0CHUcGnhmmKtbhPvN+FlOeEWOpXFe47z3kQNlBYRb++tUUnsU5Z6mXFwWMNdDTjsdJwluAp0NVRa7lL7aqs0YOZpXmLUdMY0asBhFeXiZl8lNnLv4e9yrzRvn5c2IOFkVwMOCTXuO3A476QQOrSrWQRfjBqbuxpcUmzohAuiJibVL1BzDxwu6DsexTuLzd1i6MOt0G3qZRA1H+nWQr+yKFEDWXqXblG83XdGJbFPWVWzK2t8ZxzCwadtvlM5jLmImhjvaj5QvLGSvC/N2+cjD9cV44Is8LK8q2mOxZpjzf2LziKgJhZAjS4toqbI7u7v8KdboQ1wKM7YO6Owu++apfqXHDcWqxLBDHQ1CBhf15R3Fu9qcHK4i6ipqgnsasChRI1KV0aNX6UB43fq9tVa4eQgztgmvGwQNcqiyMD3cCSZs28p3lW6fbVWi2bCdXJXAw5FBi5JrDY3LxNqIN5VwvJHal+tVY1uLV10yF0NOOz3nUW8IvOb1LRC+xq7G/5wK4QJt0DzEqHGadaocdAhoWae6CoriQywxb9AMWo+wJnihPvIqIErHqAw3lnZvioKWYyaJaiD79xA6qECqIErzsUYxRs6n37rUSMBo1JPhINuIWpqRVeDV3QL4h2T83FMhXch7NmWCBNu3vEgHCZqagVqsngQaVezCcfvng507GP4w63QPZ1wLhR2Pm1OrZLsamrB4ZS+swjHr9/T4e0vybvnpzudenL4EDMK+33lsH2BoMMtHTpcDNQUa4VLiphIPSzxdGuhXVkUGfgeKsd9ulUrWwBpWYfXYtT41Mvows7/Cx84bBd/hn7IWPrWBwUYiZq7zbajxo1p1PhY4hk16DAtzMMVD1Dw11immmLzruZvQOgmFXZKOHdZuGppaV9yUhDCdupqFgkwUFNqm0vz8nkJJwdR2D9AEBk1n1qk2kUufiTogLx+HW8R6GZ5y+JdzRLUwWZKvUBX064sig8eQBAZNRRvFehgeO1Ttj+WO0PU0mmbAocSNe218mqZvoXx/iSyHBxaPEB5zTGcHPzabagBhwI1cNVC5lcYNVRTrNVH4v2yCmE7F/ZlcChyEQzyadN0TWFNaVm2eIB6QDPEfcmM2gBq7oOvB8I8XPGuBum6qMNrN2p0L7PZbyTcF/H2Z860iA8egI9PdOseOBTxbtGBtlYImGZfkEW9dgvvatrPSC2nBGqUD87FTxBEYfkjBdpWuc16SeH269RDpZXBMzoXz7RwV7MCdL1HNeV++NOt0D1CTQs4XKFb6FBkIESznQcoouu28NqnB83NmHCfao2Euw8WJWrAIZn3ia6ipqhbNg9QcPxEEDapiUEtQOhEBj4Ar4wapOsKhddq1OjJQTcxlHBTA+rtq13xZwDo0LegaW0R4f0MDi0eoBx0OOW4Zm3zwdeA76QxUsTZFVVJznwMBtpaLdPkwKmHGqgWEaweEF0NRHOAUDMFvqpTOrzVJXn3/LRA5fxBiyoKjJp/qqUGvmjoDJB5t11XEgy03ahRDs/I1DPCsTKgLIoM/AJX3+hWNdFVxVkG2lrpGcITVQ5em25Nga86x5mGqwG69YkqCQfaWqHDKSdFTQzKR19pusroWytwMj9TeD+X5uXz0kcNGHfZrG114GvaSeEVo0Y6FB+4OtADoc+2Q++h67xPqfeVbmEGhuSiN6Atc6CtFfJ+gFKPCztn4AMTNQ91eF28sho1kJwpZ1E5rK6mH2FUBtbVCfNLBB3UA/XP1SLe/8gMrrMZNalqPTn48NYDAdTUSYkMXByoq5aXlItYSVploNW/ZDNq7lNtW9aph3IfgsMlgRq44gGKADMFDuvCH26FcHL4R/OkOoAa8CU++AxXlIspEdRqZTl9Xt5pPW8zaggwK2ZtgwxsFR98hUj9Q7fQ8jQFeirs2XYIE646TU1MADXKYavosMHhQ5qtILx1IrzfWqXOfw1/ug1KVevaplIvBzWtrXXy7dNOekBciVzkXQ1aFoE+ryzajJrPVM6VwTpGjfMQ4iOKXStcBVCjotuacaakw3PnzqVCH26FvkJy/hMkC4ozEL0Sany0vChQc07KbtSo0IkztmLWti8Qn290xahByyLe58DhdNiz7VB6ANoSX9e287yrgfiIDJyGq++MmtZzwrEM7zdwaDFqHKptLjYxhJoMZaDORTptaFkOUHD1LfzhVughlfNzEENOOM5AdMgDFHzQmMGrxkab18JUzr9KPLbWBVBDGfgZrrirofCKq0Yhu1Gjy/kK1LbvdGsF4vMtJBcbweGquFKyHDUqTVNQ2wQh6ZbORRfPXWMj3dqCf5aoUQ47LB6gnAFoXQRqzNomcxEy0D8PkQqgRn2wJsOrr6zVZ13O3YdmbaMMdOvhKoAaCJ1LVyV59/yEraVEzXmjtm2Bry86F+W5A7nnteVUBziMHDWp9PRWNA+dPt+qDpXjrGJhp1ucgesQTkbNd/C16rjyqr6+I1LUDE5v/TiZSCRWf/2v5iGfyjkU9sBp4wychkgxatbhAxHvrXqpjvVIXkaaW/8hvCVOCiW2Inmk26jLeaaxUTmk04YZKLsadVXPubjaoUJXLwLdoSzuHjWp9Or6mjZ38pDU4V0/VOkb1bbPRm1zMRennRSgpoPMp8GXRA1e7eYVMunVrbVDOeaUErt5KOsrlXMgSyPnBnwgM/BbvTpt3NWgLxF5vCqSCq44c2wu4O6wUGJw1+6kuJyvwrkLoKZDpeJ3ee6UD0bNGvgSleS7vipYEig6LQ8Z5pQiQk0ayZ/B09bYSD/CcAbiFQ9QaFnE+1tHR0f92lZB2yhXnLkfie1pedhQNKhJUTnPNBqnjTMwbebiqvqgQ6BmdWs1nQl/dOh/TgIl5MyZ5o4LHf4RicNAa0lVDsUZ6Nbrc4dKi8h1rK0XlEaiiHeHmTPdHWdFswDicr4NNd+o2OG5e6TvZNZX04UMhTnmdg7d8VzFI0JNhwbMtFnbVukDOHcdxQzz6el8ztzxEB2NR4SajnpVvtOaJ/Xc1dAH0zIrT64V1rqEFPEdz9w2d1LxC5E4FGesEc6Y22Gctkw9oeb7eoFAme6+UtiZyzUHehyJQ33GBGrQEOdGvQzdj/XCynmmqDNnmlMqL+CP+hNxbdvWRm9tTRf+s8vUT4r4jt62uSuXikc0QFE511dFPMRN08tkdvYWbi7Mm7QXj5cPReJQl3NfkkV1KIV9XwJFnLlH9MGPAoESbu5K91BBBelnIsC4soinCyizwSLOZfRKMWcux9yjoUykv/asdahaIJrn3RRxnuZWE8XlpTAXfyzMRekN9OV7EUBJdRilIEF/9cFE/rAMRO6xSMtojRWjFCfPYaMSJIgKqUT+aXk08jNXvKCIc7u/lcjFZWCaO1ogUEr/C6vLZ443C6sJAyhX6NaVX+elPnOlj5wESnAST9BRGTR5EqfvrMZ/AZRyYc6CM6f0w+gtE7yoShiwTBAEB+ORAWWvYswHYz2RC5RgYTdwydNcKh4euQKBkhnsufC4JxJDQckzd+UHWVxNHMoFCrf73QYx44/oVvm2M1dgEVfmjrUJRTNAaaWnH63JdfpJPm3phNl/URB6EgYuGTUX4kGgFFbnXG3uGCgaa8pcYBLn05Y6bnRf3O6n4yZO6Gk98aPFFHFpTgXuGKstmlKyakziiW66tWa0X3Eu7EcNWLL5wYLPXEpGzjAnVFbWFtGuJmFM4pxw3YlcoMTZ/GMDl3Fq/dxCinjGSEsyp9QWDWrSiUMGUAKoMfqT4GkzgNId+vCfKBVuTrtT+jcShyk1tAYOXMI8bQSU48zZnnj57oBinjlhLcdcWdlvZWUR7WquGOMcN5kps/0Koqa8KKCkQs0Z3oQ7VDTTVHciFyiHA6fN6L4YNZnCG+fMTkAJNyeVjAY1UwljoAugJp4LlMBpK9zcL86cYQ4cRoSa3NMmwsaoiR/NBcqVnz0oVGYRz9ec1Inkv5E4dAx/ObUtZ1gVZ65Qc2Fn7lge3qSOHDlyMZru+7EBlDjlhhsvsnHesYj/OnLaHCga1DyK5zZggdNWXswknik2LXPNSUWEmqHcka68nMvQamE/pKHDos7cNnfKYVSoMYfVIh4y2MNndEdzv4W4O/FbqDfhLpk8cjGaxbcTNyfxgpIyle7plmfuIn3ye3FnLugteeT3KLenjwOTeEF77wyaU2nZRh/3tBVt7giYG4x4k/MIesuewoBi1rk2+pMPtf3aXHjoVOT2YD8zdKGY7VeZAZQ2nh7bCgSKysuLe7LUL1TuIB/9GXaoinjbI7oVSpSfAWXGBnMaKPRBT5sBFEbNvwWcuRkbtqcCKHTm2rilM3hSVkZf6EnmdeZmIv4hrTilh3KBYp62AFCSZH4o+Yszt0dAKUoXjParjVu6i0YRT7L55I5paQlQUtyr9QQMSkfH+LRdMHiSnNF33B2BYseZk0DhdUWb2X6x+WSuwxMB1CRDgFL6tEwN0pnjPV7KXBAFUMMO4cidIA+PkgFzUf8yX5TcwVygBH4yuGi0X3zaMieMWpAMmLfozCkNmfMcJ9yM0aDwaXMuGrAMmLekiLPSQX/KEeXVUJvRnPxO38o5bdLhTOjDrZBrznOhpw2TktfCOQ5lmSvN2+elx8ZAF0CN2X8l+ffeJJuzqoiHaSbYoJTlnjZljSfx4GmzqYj/Qnqk08EKtNEzyVygBMwfsaSI56N0m9mgUMYNGTw5wqfNgjqXv0xi8h5vMNehyEqbj9vOumgAJbDHSwbMyTO3T9LSVDcUBUWUbafNpsa5aA0lzXGObs3Y0jjvTumkMdAl6VbGgv+9LgoZwExG9JOBRboYpGVSnLmDEbiAupMMlAMXPqUenMQPXOhImZ591aEcaP0vrWptoGWj+OgAAAAASUVORK5CYII=;" parent="1" vertex="1">
          <mxGeometry x="681.9999999999999" y="630" width="40" height="40" as="geometry" />
        </mxCell>
        <mxCell id="ne6fWqcortJCOHYnfYvi-74" style="edgeStyle=orthogonalEdgeStyle;rounded=0;orthogonalLoop=1;jettySize=auto;html=1;entryX=1;entryY=0.5;entryDx=0;entryDy=0;fillColor=#e1d5e7;strokeColor=#9673a6;strokeWidth=2;" parent="1" source="ne6fWqcortJCOHYnfYvi-60" target="ne6fWqcortJCOHYnfYvi-56" edge="1">
          <mxGeometry relative="1" as="geometry">
            <Array as="points">
              <mxPoint x="770" y="594" />
            </Array>
          </mxGeometry>
        </mxCell>
        <mxCell id="ne6fWqcortJCOHYnfYvi-75" style="edgeStyle=orthogonalEdgeStyle;rounded=0;orthogonalLoop=1;jettySize=auto;html=1;entryX=1;entryY=0.5;entryDx=0;entryDy=0;fillColor=#e1d5e7;strokeColor=#9673a6;strokeWidth=2;" parent="1" source="ne6fWqcortJCOHYnfYvi-60" target="ne6fWqcortJCOHYnfYvi-58" edge="1">
          <mxGeometry relative="1" as="geometry">
            <Array as="points">
              <mxPoint x="770" y="650" />
            </Array>
          </mxGeometry>
        </mxCell>
        <mxCell id="ne6fWqcortJCOHYnfYvi-60" value="" style="shape=image;verticalLabelPosition=bottom;labelBackgroundColor=default;verticalAlign=top;aspect=fixed;imageAspect=0;image=data:image/jpeg,/9j/4AAQSkZJRgABAQAAAQABAAD/2wCEAAoHCBYVFRgVFhIZGBgYGR8VFBUSGB8YGh0YHBkaHBgYGRgcLi4lHB8rHxkcJzgnKzAxNTU1GiQ7QDs0Py40NTEBDAwMEA8QHxISHz0sJSs/N0A7Pz02Nj40OD8xMTQ9Njc+NzY9ODE2NjE0MTQ9NjQ0PjQ0NjY2NjQ0NDQ0NDQ0NP/AABEIAOEA4QMBIgACEQEDEQH/xAAcAAEAAwADAQEAAAAAAAAAAAAABgcIAwQFAgH/xABGEAACAQIBBggOAQIEBQUAAAABAgADEQQFBhIhMXEHEyIyQVFykRQXNVJTVGGBkpOxsrTSoTTBQmJz0RUzQ7PhIyWCovD/xAAaAQEAAwEBAQAAAAAAAAAAAAAAAgQFAwYB/8QAKxEBAAICAQIFAwMFAAAAAAAAAAECAxEEEjETISJBUQUyYXGhwYGRseHw/9oADAMBAAIRAxEAPwC3iZxeFJ6RPiEYrmP2G+0zKdKmuiOSNg6PZA1Z4UnpE+IR4UnpE+ITKvFL5o7hHFL5o7hA1V4UnpE+IR4UnpE+ITKvFL5o7hHFL5o7hA1V4UnpE+IR4UnpE+ITKvFL5o7hHFL5o7hA1V4UnpE+IR4UnpE+ITKvFL5o7hHFL5o7hA1V4UnpE+IR4UnpE+ITKvFL5o7hHFL5o7hA1V4UnpE+IR4UnpE+ITKvFL5o7hHFL5o7hA1V4UnpE+IR4UnpE+ITKvFL5o7hHFL5o7hA1V4UnpE+IR4UnpE+ITKvFL5o7hHFL5o7hA1V4UnpE+IR4UnpE+ITKvFL5o7hHFL5o7hA1V4UnpE+IR4UnpE+ITKvFL5o7hHFL5o7hA1V4UnpE+IR4UnpE+ITKvFL5o7hHFL5o7hA1V4UnpE+IR4UnpE+ITKvFL5o7hHFL5o7hA1V4UnpE+ITlVwRcEEdYNx3zKHFL5o7hNBcFg/9qw2+r+RVgS6IiBw4rmP2G+0zKtHmruH0mqsVzH7DfaZlWjzV3D6QPuIiAiIgIiICIiAiIgIiICIiAiIgIiICIiAiIgIiICX/AMFvkvDb6v5NWUBL/wCC3yXht9X8mrAl0REDhxXMfsN9pmVaPNXcPpNVYrmP2G+0zKtHmruH0gfcREBERAREQEREBERARE7GAwjVnWmu1ja/UOkmfLTFY3L7WJtOodeJZuDyNSpUwmgrarOzKLsev2SFZw5H8HcFblG2E9B18kmVcXLrktNY/p+VvLwr46Rbv8/h48REtqZERAREQEREBERAS/8Agt8l4bfV/JqygJf/AAW+S8Nvq/k1YEuiIgcOK5j9hvtMyrR5q7h9JqrFcx+w32mZVo81dw+kD7iIgIiICIiAgmJ7mZiK2MpBlDAk6mAIvbVqMhkv0Vm3wlWvVaIeZh8n1amtKTsOtVJHfPrEZMrILvRdR1lTaXaVA2ADcLTicX/8zEj6xaZ+3y/VoRwImO6nclZFrYjmJqG121L39Jk2yBm6MMS7PpuRo6hYAatmvXJIVA1AADqAtOnjMUlMXd1Qf5iB3SOXm5M/prGon2WsPFx4vVbzmH406OUMIlVSji6nXqNjcG+0TzMbnbRU2QM/tGod889s8R6H/wC3/iSx8bNHqiFi3KwfbaX5jc1V/wCm5X2Pr/mcmGzYpAcss56bHRH8Tkw2c1JzZgU37O+etSqq4ujBh1qbyxbJnpGrTJiwcS87rET/AN8IRl7Jwo1LLzCLrc33i88ySnO/DudBwt1UEMR0bNvskWl/Beb44me7F5mOMeaYiNQRETuqkREBERAS/wDgt8l4bfV/JqygJf8AwW+S8Nvq/k1YEuiIgcOK5j9hvtMyrR5q7h9JqrFcx+w32mZVo81dw+kD7iIgIiICIiAneyHixSxFKoTYI4Lbth+s6MSN6xas1n3fYnU7XyzXFxsOsTheeTmbWZ8HTL7bEKekqGIBM9Ss4UFibAAkn2CeOtj6Mk0+J03sdt1izxc4ssrhkuRpO2pFHX1nqGqVjj8c9ZtOo5Y9wG4DVOxl7KJr13e/JvZBfUFGoWnnT03D4tcNIme8srk57ZLajsRPfyNmy9YabkohF1sLsw9l9gkhp5t4dBbQLe1if7SeTl46z095Sw8DLkjfaPyr+djBY16TaSNbrG0HeJL8Tm3QbYCh61P9jI/lTIL0uUvLTpYCxG8T7XkY8npn908nCz4PVHt7wkmTMopiUKkcq1nU+0bR7JD8q4I0ajJ0bVP+U7JxYPEtTdXU6wb7x0gyQZxaNWildejUffYWO4gyFa+Dk1H2z/l1vljlYZm33V/eEZiIlxlkREBERAS/+C3yXht9X8mrKAl/8FvkvDb6v5NWBLoiIHDiuY/Yb7TMq0eau4fSaqxXMfsN9pmVaPNXcPpA+4iICIiAiIgJ+ojMQqgljqUDaT1T6oUWdlRFLMxCqo2knYJb+bObiYRL86o1izno1c1eoSlzObTjV3PnM9odsOGck/h2skYbiqFOna2igBE8/OytoYSsQbEoVB7Wr+8915Gc+UJwj26CCd1553jT154m3vP8te/pxTr4VZPazVybx1YFhdEGkwPT0Ad5niyc5ggcXUPTpge7RE9Ny7zTFMwy+LSL5YiXfy/lpMMoFtJ25qjYB1n2SG1M5MSTfjLewKLfScWcNQtiapPnlR7ALAD+J50hx+NStImY3MunI5WSbzFZ1EfCRYDOdgbVRpDzlABHukppurqGU3VhcHrBlaSS5o4s3akdnPX+8hyePER1V8tLnB5tptGO87iezrZy5MFNg6cxzrHU20+6dbD4seDVKROwqyDex0pMMq4cPSdT5pI3jWPpK7Enx7eLTVu8OPNx+Bl3XtMS/YiJcZhERAREQEv/AILfJeG31fyasoCX/wAFvkvDb6v5NWBLoiIHDiuY/Yb7TMq0eau4fSaqxXMfsN9pmVaPNXcPpA+4iICIiAiIgSng8qUlxd6hAJUinpbNIlbe+17S13mf5Lch58VaICVF4xBqB2OB1DXYzF+pfT75reJSdz8LnHz1pHTZZjzzMuYQ1sPUpja6EL2to/kTiybnJhsQwVHsxFwjCx/2npPMetcmG8dUamGnWa5K+U+SjnQqSpFiDYj2ie7mjlQUaugxsj6iegN0E91p6+eebxLHEUwW0jeoo6NXOH8SEz1GO9eTi/X9mTatsGTfwk2duRnV2roNJHN20deibDXuMjI16h3Cevk7OKtRUINF1GoK4JtuInPWzpqEHRp00J/xAEn3T7j8WkdMxE699pX8G89cTMb9tPBInuZpITWLdCqb++eK7FmudbMdftJk3zeyeaVPlCzvymHUOgRyrxXHMT3l04GGb5omO0eb0qourDrUj+JWroVOiRYjUQZZsi2d2DAK1R08lvdbRP1lTh5Om3TPu0fqmGbUi8e38o1ERNR58iIgIiICX/wW+S8Nvq/k1ZQEv/gt8l4bfV/JqwJdERA4cVzH7DfaZlWjzV3D6TVWK5j9hvtMyrR5q7h9IH3ERAREQEREBERA+qNVkYOjFWU3VhtBlt5AyuMVS09EqQdFgfO6x7JUUtDMZQMIlulmJ33My/qlazji0x57XeDaevXs91pFcsZp0qnKp2pt/lHJPtK/7SVNOu0yMGW+Od1nTXtipkjVo2rnEZpYhebov7VNv4M46WbGIPOUJ7WIP0lhtOB5oxzssxryco+m4Znfn/dHsl5ASlyns79BI1A9YE9ifTSK5z5UcMaK2AsCzdO7+IpF899TK1ecXExbiP8Ab6yjnKVdkRQQvJ0m6xttPAxmOeqbu5bqHQNwnWiauPDWnaHn83Ky5e8+Xx7ERE6qxERAREQEv/gt8l4bfV/JqygJf/Bb5Lw2+r+TVgS6IiBw4rmP2G+0zKtHmruH0mqsVzH7DfaZlWjzV3D6QPuIiAiJ+XgfsREBERASWZr50JhqJpujtytJNC2wjZr9sicTlmw1y16bdk8eS1Lbqm2Nz7uCKVEg+dUIP8L/ALyMPlrEFtPj3v7Dq3WnQiQx8XFjjUVdL8jJbvL10zlxI/6l+0Lz3ciZxhxoVSFfobYpHv2GQuIvxsdo1rSeHl5cdt73+JWXiK6opcsLAE3v7OiV3jcSajs5/wARJA6hfUJxca2jo6R0fNvq7p8z5g48Ytzvbpy+ZPIiI1qIIiJZUSIiAiIgIiICX/wW+S8Nvq/k1ZQEv/gt8l4bfV/JqwJdERA4cVzH7DfaZlWjzV3D6TVWK5j9hvtMyrR5q7h9IH3O7kfJVTE1Fp01JJI0mtqUE62Y9A/2nSMtzNbCJgMA2Jfnugqv7eTdE7zb3wPnAZm4LCJp4mojt0tVIVPchnOj5IqnQAw99nNCdzGVVlfKtTE1DVqtdjsA1BR0KonSIgT/ADqzEWmj4jDVAUUaRRiDq6Sr7DukBne/4xW4jwbjDxWkG0COkG+o7bXOydJELEKNpIUbybCB+RJM2YmNDKopqS40gVcWA1c4nZtn5j8yMXRpvVdUCINJiHubewW1mBGonpZGyHXxTFaNPSttZjoqP/kdV/ZPcqcHWNAuBTY+aHsfcTAiM7eS8nviKqUqYu7mw6h1knoE9TB5n4qpxlqaqaTFXDtom4UNq6xYjXPd4J6SmvVYjWtPUd7LeB3aXBkgA4zF8rp0VAHuuZCs5Mmphq7UqdQuFA0mPna7jV7pM86M1coYnE1HVlNPS/8ASBqaNksAOT0HbIDXwTrVaiV0nDaBVOVdvZ1wOtElmG4Pca6hiqJcXAd9fvA2TqYrMvF03RGpjlnRV1a6XsTym/w7OmBHonpZZyJVw1QUqoUOwBGg2kLE2Guem+YuNBReLUlwSpVxYAWPKPRtgRqJLa3B5jVXSC02IFyqvr919siteiyMUdSrKbMrCxBgfETsYHBPWcJTQu52AfUnoHtkmTg6xpFyKanzS9/5ECIxPfGZuL44UDTAcqXUlhoEC17MN41Tyco4J6FR6L200Oi2ibi9gdR6dsDrS/8Agt8l4bfV/JqygJf/AAW+S8Nvq/k1YEuiIgcOK5j9hvtMyrR5q7h9JqrFcx+w32mZVo81dw+kD7lq58X/AOGUtHm2p6Vuqy290qoy3M2MUmPyecMx5aIKTg6rHRsj94/iBUi7RfZcX3X1y0qGT8jaC6T076I0uX02F/5lcZWyXVw1Q0qq6LDYRzWHWp6ROlAtvD5HyO7BE0GZjZVV7kn2CR/PvItDDVcKKNPQ03u+u97Otp2eDXNp9MYuomioBFJWuGLXILaJGoC2o9N55OemWlxONQIbpScU1PWQ4DkdYuNsCxM6sunBYVaqoHZilNATYXZCbncFMrOrnBise6YZ6gC1XC2QW29evWBJlwpf0VH/AFU/7dSV5mvWCYzDuxsq1BpE9AII/vAtDLmU6eSsMiUqasx5KLzb7Szt16/rIRhuELGK4d2V1vrQjRBHUDrt3T3uFnAOVpVxrRbo1ui9yCeoatsrS8C+8nZRTE4bj0XR00JZekNYggnrEgfBH/za3+mPvWSjMvBPSyeA4ILqz6LXBAI1Ag7DIvwR/wDNrf6Y+9YHRzmzqxdPF4imldlRKhVFBOoWBtt9skHB5gE4upj69i7MxDuOaoAuwJ2E3Mgud/8AX4r/AFT9qyws0qfhOSmpIeUA1Pq5QAMCN5Y4Q8Q7niLIgPJ1XZh0E7LbpJcys8jim4isoFS2kjDY9hc8noIlT1aLIxRxouh0XU9BG0SWcGmAd8YlUKdCkG026LshULfZfXsgdrhN/rafYT7pPM5MsnCYXjgoZrKiKTYXawud0gfCb/W0+wn3SR8Jf9CnaT+0CN5F4QMSK6iroujuFIto6IZrXU69l56HCtktAqYpQAzEI5AtpAqSpPd/Mr7Bf8xO2n3CWhwpf0NPtp/23gdjN7B08nYFsS4BdkFRyRZiSCUQHb0yHYrhCxbvpIVRehANIW9p1Xk1zjw5xOS1NPlWpo4A6dBeUABtPslO3gXbmbnIMcjM1MJUpkKwBvcH/EvUJV2e39fie2PsWS3gmwTjjaxBCGyLf/EdpI6wNkiWe39fie2PsWB4cv8A4LfJeG31fyasoCX/AMFvkvDb6v5NWBLoiIHDiuY/Yb7TMq0eau4fSaqxXMfsN9pmVaPNXcPpA+538jZXqYaoKlNrEEaS9DAHmt/+6Z0IgW1gM8sDik0cTTSm3StSzr7nIE51xGSKPLVsPfaLEOfcDKen5aBPM6M/jVVqOGQoh1GrezEdIVbcke28hGGazoSdjqST2gSTOOIFj8IeWsPXwlNKVdHdaiMyobkAU3BPeRK4iIFk5q59Uyi4fFgclbCq/KD9QdSLA69t+ie0tbJFI8ar4fSGsaJDG/8AlXrlOT8tAuPB58YWqtYM6Ugt0pabWZ10BytHVbWSLa9kiPBplOjh6lVq1VUDJZS5tc6QNpC4gepnPXV8ZiHRgyPULIy6wRYax3Tt5p5zPgnJtp0356XtrtbSBsbHZ3TwIgXG+UclYoB6jUdLaRUIR9zdJnw2d+Bw7pRoaGixs707KiCx1kjnHVKftECXZ/5RpVsUj0qiugVQWQ3Fw2ue5n7lzDVsGqUq6O4ZCVQ3Oq15WsQOTCsA6EmwDqSfYGBJlicIWWsPXwtNKVdHcOhZUNyAEYE95lbxAl+ZeeJwt6NVS9JiLNpa067LY6QN9mrZJo9bJFU8Yz4e51nSIU+9ZTk/LQLkoZ8YQVhRQotIKSapIRARayqBqN7nXfolZ52YlKmMrujB0ZwVZdYI0VFxPIiAl/8ABb5Lw2+r+TVlAS/+C3yXht9X8mrAl0REDhxXMfsN9pmVaPNXcPpNVYrmP2G+0zKtHmruH0gfcREBERAREQEREBERAREQEREBERAREQEREBERAREQEv8A4LfJeG31fyasoCX/AMFvkvDb6v5NWBLoiIHDiuY/Yb7TMq0eau4fSavdQQQdhFjuO2RIcG2TPUz8+v8AvAoCJoDxb5M9UPz6/wC8eLfJnqh+fX/eBn+JoDxb5M9UPz6/7x4t8meqH59f94Gf4mgPFvkz1Q/Pr/vHi3yZ6ofn1/3gZ/iaA8W+TPVD8+v+8eLfJnqh+fX/AHgZ/iaA8W+TPVD8+v8AvHi3yZ6ofn1/3gZ/iaA8W+TPVD8+v+8eLfJnqh+fX/eBn+JoDxb5M9UPz6/7x4t8meqH59f94Gf4mgPFvkz1Q/Pr/vHi3yZ6ofn1/wB4Gf4mgPFvkz1Q/Pr/ALx4t8meqH59f94Gf4mgPFvkz1Q/Pr/vHi3yZ6ofn1/3gZ/iaA8W+TPVD8+v+8eLfJnqh+fX/eBn+JoDxb5M9UPz6/7x4t8meqH59f8AeBn+X/wW+S8Nvq/k1Z++LfJnqh+fX/eSHJWTaWGpLQopoU1vorpM1tJizcpiWN2YnWemB3IiICIiAiIgIiICIiAiIgIiICIiAiIgIiICIiAiIgIiICIiAiIgfsRED//Z;" parent="1" vertex="1">
          <mxGeometry x="730" y="25" width="70" height="70" as="geometry" />
        </mxCell>
        <mxCell id="ne6fWqcortJCOHYnfYvi-103" style="edgeStyle=orthogonalEdgeStyle;rounded=0;orthogonalLoop=1;jettySize=auto;html=1;strokeWidth=2;fillColor=#e1d5e7;strokeColor=#9673a6;" parent="1" target="ne6fWqcortJCOHYnfYvi-65" edge="1">
          <mxGeometry relative="1" as="geometry">
            <mxPoint x="500" y="120" as="sourcePoint" />
            <Array as="points">
              <mxPoint x="560" y="120" />
              <mxPoint x="560" y="120" />
            </Array>
          </mxGeometry>
        </mxCell>
        <mxCell id="ne6fWqcortJCOHYnfYvi-104" style="edgeStyle=orthogonalEdgeStyle;rounded=0;orthogonalLoop=1;jettySize=auto;html=1;strokeWidth=2;fillColor=#e1d5e7;strokeColor=#9673a6;" parent="1" edge="1">
          <mxGeometry relative="1" as="geometry">
            <mxPoint x="600" y="40" as="targetPoint" />
            <mxPoint x="500" y="120" as="sourcePoint" />
            <Array as="points">
              <mxPoint x="560" y="120" />
              <mxPoint x="560" y="40" />
            </Array>
          </mxGeometry>
        </mxCell>
        <mxCell id="ne6fWqcortJCOHYnfYvi-67" style="edgeStyle=orthogonalEdgeStyle;rounded=0;orthogonalLoop=1;jettySize=auto;html=1;fillColor=#e1d5e7;strokeColor=#9673a6;strokeWidth=2;" parent="1" source="ne6fWqcortJCOHYnfYvi-62" target="ne6fWqcortJCOHYnfYvi-64" edge="1">
          <mxGeometry relative="1" as="geometry">
            <mxPoint x="583" y="40" as="targetPoint" />
          </mxGeometry>
        </mxCell>
        <mxCell id="ne6fWqcortJCOHYnfYvi-62" value="Developer" style="shape=umlActor;verticalLabelPosition=bottom;verticalAlign=top;html=1;outlineConnect=0;" parent="1" vertex="1">
          <mxGeometry x="467.5" y="25" width="15" height="30" as="geometry" />
        </mxCell>
        <mxCell id="ne6fWqcortJCOHYnfYvi-66" style="edgeStyle=orthogonalEdgeStyle;rounded=0;orthogonalLoop=1;jettySize=auto;html=1;fillColor=#e1d5e7;strokeColor=#9673a6;strokeWidth=2;" parent="1" source="ne6fWqcortJCOHYnfYvi-64" target="ne6fWqcortJCOHYnfYvi-60" edge="1">
          <mxGeometry relative="1" as="geometry">
            <Array as="points">
              <mxPoint x="680" y="40" />
              <mxPoint x="680" y="60" />
            </Array>
          </mxGeometry>
        </mxCell>
        <mxCell id="ne6fWqcortJCOHYnfYvi-64" value="" style="image;points=[];aspect=fixed;html=1;align=center;shadow=0;dashed=0;image=img/lib/allied_telesis/security/DVS_Surveillance_Monitor.svg;" parent="1" vertex="1">
          <mxGeometry x="601" y="15" width="35" height="50" as="geometry" />
        </mxCell>
        <mxCell id="ne6fWqcortJCOHYnfYvi-71" style="edgeStyle=orthogonalEdgeStyle;rounded=0;orthogonalLoop=1;jettySize=auto;html=1;entryX=0;entryY=0.5;entryDx=0;entryDy=0;fillColor=#e1d5e7;strokeColor=#9673a6;strokeWidth=2;" parent="1" source="ne6fWqcortJCOHYnfYvi-65" target="ne6fWqcortJCOHYnfYvi-60" edge="1">
          <mxGeometry relative="1" as="geometry">
            <Array as="points">
              <mxPoint x="680" y="120" />
              <mxPoint x="680" y="60" />
            </Array>
          </mxGeometry>
        </mxCell>
        <mxCell id="ne6fWqcortJCOHYnfYvi-65" value="" style="image;points=[];aspect=fixed;html=1;align=center;shadow=0;dashed=0;image=img/lib/allied_telesis/security/DVS_Surveillance_Monitor.svg;" parent="1" vertex="1">
          <mxGeometry x="601" y="95" width="35" height="50" as="geometry" />
        </mxCell>
        <mxCell id="ne6fWqcortJCOHYnfYvi-76" style="edgeStyle=orthogonalEdgeStyle;rounded=0;orthogonalLoop=1;jettySize=auto;html=1;entryX=0.5;entryY=1;entryDx=0;entryDy=0;dashed=1;" parent="1" source="ne6fWqcortJCOHYnfYvi-68" target="ne6fWqcortJCOHYnfYvi-39" edge="1">
          <mxGeometry relative="1" as="geometry">
            <Array as="points">
              <mxPoint x="810" y="290" />
              <mxPoint x="810" y="690" />
              <mxPoint x="409" y="690" />
              <mxPoint x="409" y="661" />
            </Array>
          </mxGeometry>
        </mxCell>
        <mxCell id="ne6fWqcortJCOHYnfYvi-68" value="&lt;b&gt;DB Clients&amp;nbsp;&lt;br&gt;&lt;/b&gt;&lt;i&gt;(UI)&lt;/i&gt;" style="rounded=0;whiteSpace=wrap;html=1;" parent="1" vertex="1">
          <mxGeometry x="590" y="270" width="80" height="40" as="geometry" />
        </mxCell>
        <mxCell id="ne6fWqcortJCOHYnfYvi-72" value="&lt;font style=&quot;font-size: 13px;&quot;&gt;App logs&lt;/font&gt;" style="text;html=1;strokeColor=none;fillColor=none;align=center;verticalAlign=middle;whiteSpace=wrap;rounded=0;" parent="1" vertex="1">
          <mxGeometry x="592" y="65" width="60" height="20" as="geometry" />
        </mxCell>
        <mxCell id="ne6fWqcortJCOHYnfYvi-73" value="&lt;font style=&quot;font-size: 13px;&quot;&gt;Infra Status&lt;/font&gt;" style="text;html=1;strokeColor=none;fillColor=none;align=center;verticalAlign=middle;whiteSpace=wrap;rounded=0;" parent="1" vertex="1">
          <mxGeometry x="580" y="141" width="90" height="20" as="geometry" />
        </mxCell>
        <mxCell id="ne6fWqcortJCOHYnfYvi-79" value="Scrape Metrics" style="text;html=1;strokeColor=none;fillColor=none;align=center;verticalAlign=middle;whiteSpace=wrap;rounded=0;" parent="1" vertex="1">
          <mxGeometry x="554.82" y="571" width="107" height="30" as="geometry" />
        </mxCell>
        <mxCell id="ne6fWqcortJCOHYnfYvi-80" value="Scrape Logs" style="text;html=1;strokeColor=none;fillColor=none;align=center;verticalAlign=middle;whiteSpace=wrap;rounded=0;" parent="1" vertex="1">
          <mxGeometry x="559" y="625" width="107" height="30" as="geometry" />
        </mxCell>
        <mxCell id="ne6fWqcortJCOHYnfYvi-88" style="edgeStyle=orthogonalEdgeStyle;rounded=0;orthogonalLoop=1;jettySize=auto;html=1;entryX=0.5;entryY=1;entryDx=0;entryDy=0;entryPerimeter=0;" parent="1" source="ne6fWqcortJCOHYnfYvi-83" target="ne6fWqcortJCOHYnfYvi-87" edge="1">
          <mxGeometry relative="1" as="geometry" />
        </mxCell>
        <mxCell id="ne6fWqcortJCOHYnfYvi-83" value="" style="sketch=0;html=1;dashed=0;whitespace=wrap;fillColor=#2875E2;strokeColor=#ffffff;points=[[0.005,0.63,0],[0.1,0.2,0],[0.9,0.2,0],[0.5,0,0],[0.995,0.63,0],[0.72,0.99,0],[0.5,1,0],[0.28,0.99,0]];verticalLabelPosition=bottom;align=center;verticalAlign=top;shape=mxgraph.kubernetes.icon;prIcon=pod" parent="1" vertex="1">
          <mxGeometry x="525" y="517" width="43.5" height="36" as="geometry" />
        </mxCell>
        <mxCell id="ne6fWqcortJCOHYnfYvi-85" value="Scrape k8s Events" style="text;html=1;strokeColor=none;fillColor=none;align=center;verticalAlign=middle;whiteSpace=wrap;rounded=0;" parent="1" vertex="1">
          <mxGeometry x="584.5" y="516" width="107" height="30" as="geometry" />
        </mxCell>
        <mxCell id="ne6fWqcortJCOHYnfYvi-87" value="" style="sketch=0;html=1;dashed=0;whitespace=wrap;fillColor=#2875E2;strokeColor=#ffffff;points=[[0.005,0.63,0],[0.1,0.2,0],[0.9,0.2,0],[0.5,0,0],[0.995,0.63,0],[0.72,0.99,0],[0.5,1,0],[0.28,0.99,0]];verticalLabelPosition=bottom;align=center;verticalAlign=top;shape=mxgraph.kubernetes.icon;prIcon=api" parent="1" vertex="1">
          <mxGeometry x="524.25" y="437" width="45" height="50" as="geometry" />
        </mxCell>
        <mxCell id="ne6fWqcortJCOHYnfYvi-89" value="PRODUCER" style="text;html=1;strokeColor=none;fillColor=none;align=center;verticalAlign=middle;whiteSpace=wrap;rounded=0;" parent="1" vertex="1">
          <mxGeometry x="107" y="191" width="88" height="28" as="geometry" />
        </mxCell>
        <mxCell id="ne6fWqcortJCOHYnfYvi-90" value="DB-WRITER" style="text;html=1;strokeColor=none;fillColor=none;align=center;verticalAlign=middle;whiteSpace=wrap;rounded=0;" parent="1" vertex="1">
          <mxGeometry x="321.54" y="525" width="88" height="28" as="geometry" />
        </mxCell>
        <mxCell id="ne6fWqcortJCOHYnfYvi-91" value="CONSUMER" style="text;html=1;strokeColor=none;fillColor=none;align=center;verticalAlign=middle;whiteSpace=wrap;rounded=0;" parent="1" vertex="1">
          <mxGeometry x="110" y="521" width="88" height="28" as="geometry" />
        </mxCell>
        <mxCell id="ne6fWqcortJCOHYnfYvi-93" value="" style="html=1;verticalLabelPosition=bottom;align=center;labelBackgroundColor=#ffffff;verticalAlign=top;strokeWidth=2;strokeColor=#0080F0;shadow=0;dashed=0;shape=mxgraph.ios7.icons.envelope_(message);" parent="1" vertex="1">
          <mxGeometry x="312" y="467" width="30" height="30" as="geometry" />
        </mxCell>
        <mxCell id="ne6fWqcortJCOHYnfYvi-94" value="" style="dashed=0;outlineConnect=0;html=1;align=center;labelPosition=center;verticalLabelPosition=bottom;verticalAlign=top;shape=mxgraph.weblogos.json" parent="1" vertex="1">
          <mxGeometry x="392" y="473" width="27" height="26" as="geometry" />
        </mxCell>
        <mxCell id="ne6fWqcortJCOHYnfYvi-95" value="&lt;font style=&quot;font-size: 7px;&quot;&gt;&lt;b&gt;K8S-EVENT-EXPORTER&lt;/b&gt;&lt;/font&gt;" style="text;html=1;strokeColor=none;fillColor=none;align=center;verticalAlign=middle;whiteSpace=wrap;rounded=0;" parent="1" vertex="1">
          <mxGeometry x="494.25" y="546" width="87" height="20" as="geometry" />
        </mxCell>
        <mxCell id="ne6fWqcortJCOHYnfYvi-97" value="&lt;ul&gt;&lt;li style=&quot;&quot;&gt;k8s Node Evens&lt;/li&gt;&lt;li style=&quot;&quot;&gt;Pod Events&lt;/li&gt;&lt;li style=&quot;&quot;&gt;PV Events&lt;/li&gt;&lt;/ul&gt;" style="text;html=1;strokeColor=none;fillColor=none;align=left;verticalAlign=middle;whiteSpace=wrap;rounded=0;" parent="1" vertex="1">
          <mxGeometry x="541.82" y="441" width="148.18" height="40" as="geometry" />
        </mxCell>
        <mxCell id="ne6fWqcortJCOHYnfYvi-98" value="" style="shape=image;verticalLabelPosition=bottom;labelBackgroundColor=default;verticalAlign=top;aspect=fixed;imageAspect=0;image=data:image/png,iVBORw0KGgoAAAANSUhEUgAAAOEAAADhCAMAAAAJbSJIAAAAb1BMVEX///8nep8gd50DcZm1zttZk7AadZz1+vvF2OKOtcgTc5uEr8Rvn7kAb5g4g6akw9PX5u2Yu81DiKksfaF3pr7N2+SnwtLw9vjn8PTg6/C+1N+wy9lmnLfy9/nT4urG2eNNjq0AaZQ/h6hfl7N8qsC4cE4TAAAL2ElEQVR4nO1dabuqvA6VVosWQQb3BhyQo/7/33gVtzQpyKC0vfKyvpznbIF2dUyTNJnNJkyYMGHChAkTJkyYMOH7sIrOO9N1UIoLtYgbmK6FQjjcusEdby/67p2gRSLbdE1U4cAKhhbfm66JIiTkQdAiC9NVUYQ9/2NosdR0XdTg8OxDi29M10UJ4uhJ0CIH05VRgsy1BEXTlVGCDRcM3VFORIcJhnxuujYqcCGCIfs1XRsVOEOGjunaqIAFMM7FlEKGuenaKMDRhQzPpqujADFkaEWmq6MA38Uw2XreNuv3Dmbo9Sxxd80XOnUDOSeE0G3S5x37g3mY5e6tQPfa66VPMH8si4z0OiIwyLDXCXHFiWZZr5S/6KGHPsKDDLfd3zvmT4FWn25ASJgs7D5ScyjTrDq/5kfiWKlNmg3EgGNRZ4pbwLB7b2SWeI3+vFff/tgB8YR4x45vgXax6KnjSz4D7eL2Wto+QYoWjbDjXITt4nZslhQStDxtWkgbHhMs1lGKTkS7dN0sjh4siKzfr3JfwCl1m1Qdj0Jh+Rbp+MaBoXI06q+WHJbcqqaPs32wXZxBb+TB/NS+uQUUFUO0TcMbIqtb2XayCxbEpZzdZBL4AuPUpfl1kzZMrczFhVyUUHmBAHdi/VSMl07IKVorpIYh3PXWmxediWd7j/V3EBwZriut7MX2/BI1sROtw1kY+DVlrHAZJNTAC0DqRMvCo213oLwDu2flGfU2sVSCL5Xgau3CWxd5mAAUw5Igot3plSTXmMJF6kLt1py91MTsudj4WyL3bzcwmoOxLi0zFq8byGqRS5342OLSA5OmaA8QHm2aP68VCZWqd+vEZO32HZ4SuPXox0zaCvUJbAAbXAke3Fa/9/uvBM3vJwgsNWlfZv4grQXeuWH+kdsef9vkXXrb6Cm/CwCvH+VbO8Z/6ioXDo2j12VI3qmRKL/+7ndZ5qepn512v87hfPv7q+2SRWv0CzNmFfdbByXh7LzeZPJed4ftL53FK6EA/ZGcux5Bh8fOraueoEcOjYLnTbA7OZ7b1k7EpLFx/5oic/N9p7b3V6RRQHD174QQe1pbK8K9oG5ovsDy8nIVJqSn5nlw7Guan9B813P/Sh2rliOJTBOsCB/3YZW/47gWO7zKkZyNG/zthVwtbr3rmJdcK/ORGfcPO4YSQWJ9Yj/xc1locA1TPIZSo7uHD3Upe0v6IjXqPmVLBAn5vMXjhbQBUYO9aOd4iPK8xwbxGhtJzHHN+d5Ikvdg4rHv4Q/rVUEBbNGqQNhwTX1cSAuOGakGq2sJG7QWVzQZSTTI8O+JHSZ4HlgfLbVfPuzXuyBFo4gNs8ZAYA2CgSMw2idIqOAAh2V6rvsGgwOXAqZGTYR7UatZ5nbaQT5qnqJ1YIP8U7RqMuIIjFESKRP/r3CkaBXf4gNoXZXuA0imYFrH6bw8r7oqmxYZ2LhW++HsuH2c5VgP1583ILR5hK71rjWz2SliPRwx3sVT1cXPS7UF1cF2XMKUa1EKZwVm6s5i5qkvOI4swj89V78PHQahueuN90bmA5vR3secMGHCmLGfC+wl7UuMfgS7VDZvBvxQBj/SqL86oW/Ubhop+lgn3ar9jwvIcnUGf/wHBKmryxsBP+SAZ2nUpB44wK/S2sPFBRX8r4uywYanW9ml04c/UsDQaTHkMvAh5LDW6ES9bvUvjbHekX43w7pj/n5UDC1a1SYsJA/NL2dYvaWRypaqL2doWfIDshPo1zOsOH/JJvavZyhfl0plT5CvZ2hZ+OlA/l0bQ1IBH4ahdLdLujKgkWFYgQfkqQ8Y4hsJsh+xPobn2K4AfOSTUYokt+rU0MSQnJv1Dp8w5FD3VRmkY2AIb10sqx67I2AIPRW3VZe6MTAUTvvH6iAdBUOLP3+cl3UB92i/l+G57LDS3l0G1iLigNGfIXF+EPawcj12i08ZkoXzZPG8JxeL31YfMLQIRUCr1+sdP8KwsDj5Th+GO1H0w6henn35/PAJwyZ0lkvZ5wwjvwxY8HfTvTxWcFvEMjDFkHzOkKXXctoVw7QMd3P7r6jxFzOkP6dymJL7KzsxSEFMkS9meBuaotwd+in2R8GQBUKEuX/Ofu4et6V1OYpRSq6zk9jhZ7MfMUihRvGbGa5BgBuaiW8QG37vmxkuZrNyNWWrcq+4f3r9idT2/8MwtMUwJefyAutd+3b5iCFhGN0YciwJuThkx1uS9+05WxwmBKkZUim+IZeufxFW8Ej2kqG3OyEssY3uLYZ3R+ir6NK/f4uzVGjgbNFcwlsMeTKbZZVDPb23HQhA9cWnJ4veVVDyFZ3C/xsM3u9meLc7yRrgQi8Vj4Xh3YMukRSkxf3ZBFbpmxkWRhlsiXnoh8fC8KG8mKO15qHjhzbEr2ZYsLHxtluU45tg2FwCZtjUGhWGYEsspPGiTuBPuuwWUVDFShgcVvjZjYygNNdXGf7AoG8P9124S2qzPbEq/gmX/lXLs/9K16AqQxgS7W+oGGFYAyr8pVctz/ImhuJl9mekgYFexsBQRDR8GtrGxlCcDJ/G0p+xMXzqLMo/jI6h7RaOAax0Whgdw1mwLVAag0c3Dyv4DzDsvR+6wA1GvvTnwx9dyJBXfWgQXLDjtzzrAoaiJg19CF7txDDMASS34jRfCOTg5mEAf6hDLnQ1m5Zn89J7zREVCV/e7IJ1yqfbJxMmTJjwn4SJqCYA9lp1RI6kXw6NofETMar4BmtO+MJcNzr3gLNU6SXke4QRNmD0ol7ww0LiVXoj/y+CC12b6MbgGZGra2qEN1CeGlikPRhWAoLjKYv/A9NF0KtmmRrFG6Pdk8b0QQJjxGgPL5giC4mS+CYJThOiNsJIDXAUJwXRcWJE0EQ87ytSRbhDD9QEh8OuuXmoHvhu48AZw7IIEzQSGeOI43Dyy4ARzeZSDxqK3eLjDBbMG2wkrbC5nmtfZZ7IsFaQDLSgxxfsd6ZQpGjFElfFotsBRuoST0GL5Z9/833MJe8P9nGwHFuOlswMKwh3Ui8S9/CRkDyXo3qThWkN6M6SQFjwdp18OYbwrQvNhpy/40rkSnHvvfNcuq3Jk0Ai0xQ3NVYWwr3+q+qNX63BhhCzFDf1uREIJ0Gvs//p8jJBDaEmKcprKZxAfL3smuQwODelfyDd02QOjqzREMiot122rqzpJmctycuUhy58iThqrlkxWvNN9rJ+yfwa1dOT9kRTUs2ijWBRV0ZpeA12aXwsmdpxku1XB+K+ys3GQ3wD1pDovZKTTr1MhnRPheTy6JwvLofLYpF7VpER8XWjbGY4WdDThU0vfHmVSXak2UBf2qKbn3IvaTVnl4ls85JXeXEv4POkXYT+2c6luCxcjbarCRtpTJJi1Uycln5s43cuPZ1koV63HkO+DF+2ceqw95IDPviJdVfOf6h7PZXCF5FI/BQHpEf+yhLMzZG7hS8dWzQvNrY0FiVV0e7SkySh3kqWXOQ8pLk2dndIs5BVsi2nm0XnTKSMRttlVSyQE4HqTeQhFV6bfyLdXGhrNlnC3cg51Quw0mKjM2m1vFu9zr94CnKrPtsheWQN3O4b1siVtGZplMCxwrtFpvKXwTb3IrzERuHl+vvTVmW8nnJ9xhkpt3qX0WMnCbzv0jGdQuz1LmgYoGTEpKsyDDKkHd/BW4Y+8wy8JNd2BUgArv606+b2gxxatU1EMA17pO84gBHXfUotwWqsb78Q+jUWdlePQlmadT/wZeI4rG+pKccbPfSYGVCSlQMgNiEps/DqY/g3OVg/fyV0R7xXNg7nTzpytZ0v7LBw5Nn2mvhHlBcn71XgKbz7ctNhrbCNiK+R5/Rc2NAd3t5n9v3BO69MmzBagGKNGtFKqMb4GeJRGra/8HWwP1hpvgTwnKBd66IFIEAHiO84JkAjAPs1XRsVcKDkPcr0P1B75ZozCSoEVO5E7Y9/IUAcGY36CK24GDjo6YWYiHqTNepDGQ5Bb05RnXjuiCbTpavFn9mYeKYrog5OsWG8NgKMAAdqEaW5Wc1jFYWjFNgmTJgwYcKECRMmTJgwdvwPM8rGkFMJam0AAAAASUVORK5CYII=;" parent="1" vertex="1">
          <mxGeometry x="134.55" y="620.5" width="30" height="30" as="geometry" />
        </mxCell>
        <mxCell id="ne6fWqcortJCOHYnfYvi-100" value="Provisioning infrastructure" style="text;html=1;strokeColor=none;fillColor=none;align=center;verticalAlign=middle;whiteSpace=wrap;rounded=0;" parent="1" vertex="1">
          <mxGeometry x="93" y="650.5" width="116" height="30" as="geometry" />
        </mxCell>
        <mxCell id="ne6fWqcortJCOHYnfYvi-101" value="&lt;div style=&quot;text-align: left;&quot;&gt;&lt;b style=&quot;background-color: initial;&quot;&gt;&lt;font color=&quot;#ffb570&quot; style=&quot;font-size: 13px;&quot;&gt;Event&lt;/font&gt;&lt;/b&gt;&lt;/div&gt;" style="text;html=1;strokeColor=none;fillColor=none;align=center;verticalAlign=middle;whiteSpace=wrap;rounded=0;" parent="1" vertex="1">
          <mxGeometry x="103.93" y="270" width="56.07" height="23" as="geometry" />
        </mxCell>
        <mxCell id="ne6fWqcortJCOHYnfYvi-105" value="SRE/DevOps" style="shape=umlActor;verticalLabelPosition=bottom;verticalAlign=top;html=1;outlineConnect=0;" parent="1" vertex="1">
          <mxGeometry x="469.25" y="101" width="15" height="30" as="geometry" />
        </mxCell>
        <mxCell id="ne6fWqcortJCOHYnfYvi-106" value="Client" style="shape=umlActor;verticalLabelPosition=bottom;verticalAlign=top;html=1;outlineConnect=0;" parent="1" vertex="1">
          <mxGeometry x="280" y="40" width="15" height="30" as="geometry" />
        </mxCell>
        <mxCell id="ne6fWqcortJCOHYnfYvi-110" style="edgeStyle=orthogonalEdgeStyle;rounded=0;orthogonalLoop=1;jettySize=auto;html=1;strokeWidth=2;fillColor=#e1d5e7;strokeColor=#9673a6;" parent="1" source="ne6fWqcortJCOHYnfYvi-107" target="ne6fWqcortJCOHYnfYvi-108" edge="1">
          <mxGeometry relative="1" as="geometry">
            <Array as="points">
              <mxPoint x="550" y="215" />
              <mxPoint x="550" y="191" />
            </Array>
          </mxGeometry>
        </mxCell>
        <mxCell id="ne6fWqcortJCOHYnfYvi-112" style="edgeStyle=orthogonalEdgeStyle;rounded=0;orthogonalLoop=1;jettySize=auto;html=1;entryX=0;entryY=0.5;entryDx=0;entryDy=0;strokeWidth=2;dashed=1;" parent="1" source="ne6fWqcortJCOHYnfYvi-107" target="ne6fWqcortJCOHYnfYvi-68" edge="1">
          <mxGeometry relative="1" as="geometry">
            <Array as="points">
              <mxPoint x="550" y="215" />
              <mxPoint x="550" y="290" />
            </Array>
          </mxGeometry>
        </mxCell>
        <mxCell id="ne6fWqcortJCOHYnfYvi-107" value="Business Office" style="shape=umlActor;verticalLabelPosition=bottom;verticalAlign=top;html=1;outlineConnect=0;" parent="1" vertex="1">
          <mxGeometry x="472.5" y="200" width="15" height="30" as="geometry" />
        </mxCell>
        <mxCell id="ne6fWqcortJCOHYnfYvi-111" style="edgeStyle=orthogonalEdgeStyle;rounded=0;orthogonalLoop=1;jettySize=auto;html=1;entryX=0;entryY=0.5;entryDx=0;entryDy=0;strokeWidth=2;fillColor=#e1d5e7;strokeColor=#9673a6;" parent="1" source="ne6fWqcortJCOHYnfYvi-108" target="ne6fWqcortJCOHYnfYvi-60" edge="1">
          <mxGeometry relative="1" as="geometry">
            <Array as="points">
              <mxPoint x="680" y="191" />
              <mxPoint x="680" y="60" />
            </Array>
          </mxGeometry>
        </mxCell>
        <mxCell id="ne6fWqcortJCOHYnfYvi-108" value="" style="image;points=[];aspect=fixed;html=1;align=center;shadow=0;dashed=0;image=img/lib/allied_telesis/security/DVS_Surveillance_Monitor.svg;" parent="1" vertex="1">
          <mxGeometry x="604.5" y="166" width="35" height="50" as="geometry" />
        </mxCell>
        <mxCell id="ne6fWqcortJCOHYnfYvi-109" value="&lt;font style=&quot;font-size: 13px;&quot;&gt;Business metrics&lt;/font&gt;" style="text;html=1;strokeColor=none;fillColor=none;align=center;verticalAlign=middle;whiteSpace=wrap;rounded=0;" parent="1" vertex="1">
          <mxGeometry x="558.9999999999999" y="210" width="119.09" height="20" as="geometry" />
        </mxCell>
        <mxCell id="ne6fWqcortJCOHYnfYvi-114" value="" style="shape=message;html=1;html=1;outlineConnect=0;labelPosition=center;verticalLabelPosition=bottom;align=center;verticalAlign=top;" parent="1" vertex="1">
          <mxGeometry x="68.5" y="110" width="61.5" height="40" as="geometry" />
        </mxCell>
        <mxCell id="ne6fWqcortJCOHYnfYvi-113" value="http-post" style="text;html=1;strokeColor=none;fillColor=none;align=center;verticalAlign=middle;whiteSpace=wrap;rounded=0;" parent="1" vertex="1">
          <mxGeometry x="67.5" y="122" width="60" height="30" as="geometry" />
        </mxCell>
        <mxCell id="ne6fWqcortJCOHYnfYvi-115" value="&lt;div style=&quot;text-align: left;&quot;&gt;&lt;b style=&quot;background-color: initial;&quot;&gt;&lt;font color=&quot;#ffb570&quot; style=&quot;font-size: 13px;&quot;&gt;trace-id: xyz&lt;/font&gt;&lt;/b&gt;&lt;br&gt;&lt;/div&gt;" style="text;html=1;strokeColor=none;fillColor=none;align=center;verticalAlign=middle;whiteSpace=wrap;rounded=0;" parent="1" vertex="1">
          <mxGeometry x="107" y="445" width="83.11" height="15" as="geometry" />
        </mxCell>
        <mxCell id="ne6fWqcortJCOHYnfYvi-116" value="&lt;div style=&quot;text-align: left;&quot;&gt;&lt;b style=&quot;background-color: initial;&quot;&gt;&lt;font color=&quot;#ffb570&quot; style=&quot;font-size: 13px;&quot;&gt;trace-id: xyz&lt;/font&gt;&lt;/b&gt;&lt;br&gt;&lt;/div&gt;" style="text;html=1;strokeColor=none;fillColor=none;align=center;verticalAlign=middle;whiteSpace=wrap;rounded=0;" parent="1" vertex="1">
          <mxGeometry x="321.54" y="441" width="94.07" height="19" as="geometry" />
        </mxCell>
        <mxCell id="ne6fWqcortJCOHYnfYvi-117" value="&lt;div style=&quot;text-align: left;&quot;&gt;&lt;b style=&quot;background-color: initial;&quot;&gt;&lt;font color=&quot;#ffb570&quot; style=&quot;font-size: 13px;&quot;&gt;trace-id: xyz&lt;/font&gt;&lt;/b&gt;&lt;br&gt;&lt;/div&gt;" style="text;html=1;strokeColor=none;fillColor=none;align=center;verticalAlign=middle;whiteSpace=wrap;rounded=0;" parent="1" vertex="1">
          <mxGeometry x="496.68" y="20" width="93.32" height="18" as="geometry" />
        </mxCell>
      </root>
    </mxGraphModel>
  </diagram>
</mxfile>
